:FULLY-SPECIFIED
:FORCE-ALL-JOINTS-BE-3DOF
:DEGREES
849
root 3.56316 16.5771 27.8708 -10.4492 12.3635 357.351
lfemur -18.0629 4.41074 -13.7686
ltibia 30.137 0 0
lfoot -5.30419 -16.6116 0
ltoes 22.6054 0 0
rfemur -43.4853 0.882895 8.92678
rtibia 50.4686 0 0
rfoot 1.44309 -3.2564 0
rtoes -8.34712 0 0
lowerback 9.77778 0.602366 -1.92571
upperback 3.10708 0.388666 -0.78069
thorax -1.88373 0.205724 0.593102
lowerneck -6.17839 -2.89265 2.63093
upperneck 6.32989 -4.33937 2.71406
head 3.15707 -1.97388 0.22092
lclavicle 1.57277e-14 -1.46389e-14 0
lhumerus -40.5923 -17.7284 82.9696
lradius 54.5276 0 0
lwrist 21.6736 0 0
lhand 3.90429 4.62702 0
lfingers 7.12502 0 0
lthumb 29.3118 32.2126 0
rclavicle 1.57277e-14 -1.46389e-14 0
rhumerus -44.9375 11.0612 -66.4186
rradius 55.5139 0 0
rwrist 0.145486 0 0
rhand -11.6844 -27.8033 0
rfingers 7.12502 0 0
rthumb 14.3596 -777.264 0
850
root 3.61918 16.5786 28.0459 -11.0563 13.0894 357.556
lfemur -17.3662 4.61042 -14.4873
ltibia 30.673 0 0
lfoot -5.21465 -17.9303 0
ltoes 22.7034 0 0
rfemur -45.5325 0.652435 8.39197
rtibia 51.7723 0 0
rfoot 2.36567 -2.87514 0
rtoes -7.5806 0 0
lowerback 10.1826 0.341016 -2.24569
upperback 3.24899 0.0234772 -0.81476
thorax -1.98618 0.0232828 0.742115
lowerneck -6.20883 -2.9537 2.59834
upperneck 6.56549 -4.43044 2.77118
head 3.2429 -2.01291 0.238822
lclavicle 1.63352e-14 -1.52182e-14 0
lhumerus -40.0636 -18.2127 82.6764
lradius 54.6366 0 0
lwrist 21.8219 0 0
lhand 4.32038 4.5901 0
lfingers 7.12502 0 0
lthumb 29.7101 32.1165 0
rclavicle 1.63352e-14 -1.52182e-14 0
rhumerus -45.5729 9.67954 -64.7399
rradius 55.0521 0 0
rwrist 0.262477 0 0
rhand -11.8957 -28.0375 0
rfingers 7.12502 0 0
rthumb 14.1562 -777.515 0
851
root 3.67254 16.58 28.2126 -11.6343 13.7806 357.752
lfemur -16.7028 4.80057 -15.1717
ltibia 31.1834 0 0
lfoot -5.1294 -19.1861 0
ltoes 22.7967 0 0
rfemur -47.4821 0.432975 7.88268
rtibia 53.0138 0 0
rfoot 3.24422 -2.51207 0
rtoes -6.85067 0 0
lowerback 10.5681 0.0921402 -2.5504
upperback 3.38414 -0.324281 -0.847203
thorax -2.08374 -0.150451 0.884016
lowerneck -6.2378 -3.01184 2.56731
upperneck 6.78984 -4.51717 2.82557
head 3.32462 -2.05007 0.25587
lclavicle 1.69137e-14 -1.577e-14 0
lhumerus -39.5601 -18.6738 82.3971
lradius 54.7404 0 0
lwrist 21.9632 0 0
lhand 4.71662 4.55493 0
lfingers 7.12502 0 0
lthumb 30.0894 32.025 0
rclavicle 1.69137e-14 -1.577e-14 0
rhumerus -46.1779 8.36381 -63.1413
rradius 54.6124 0 0
rwrist 0.373884 0 0
rhand -12.0969 -28.2605 0
rfingers 7.12502 0 0
rthumb 13.9625 -777.754 0
852
root 3.7229 16.5813 28.37 -12.18 14.433 357.937
lfemur -16.0765 4.98007 -15.8177
ltibia 31.6653 0 0
lfoot -5.04891 -20.3715 0
ltoes 22.8848 0 0
rfemur -49.3224 0.225809 7.40193
rtibia 54.1857 0 0
rfoot 4.07355 -2.16934 0
rtoes -6.16163 0 0
lowerback 10.932 -0.142794 -2.83803
upperback 3.51171 -0.652558 -0.87783
thorax -2.17584 -0.314451 1.01797
lowerneck -6.26516 -3.06672 2.53801
upperneck 7.00163 -4.59903 2.87692
head 3.40178 -2.08515 0.271963
lclavicle 1.74598e-14 -1.62908e-14 0
lhumerus -39.0848 -19.1091 82.1335
lradius 54.8384 0 0
lwrist 22.0966 0 0
lhand 5.09065 4.52174 0
lfingers 7.12502 0 0
lthumb 30.4474 31.9386 0
rclavicle 1.74598e-14 -1.62908e-14 0
rhumerus -46.7491 7.12178 -61.6323
rradius 54.1974 0 0
rwrist 0.479051 0 0
rhand -12.2868 -28.471 0
rfingers 7.12502 0 0
rthumb 13.7796 -777.979 0
853
root 3.76996 16.5826 28.5171 -12.6899 15.0427 358.11
lfemur -15.4913 5.1478 -16.4213
ltibia 32.1155 0 0
lfoot -4.97371 -21.4791 0
ltoes 22.9672 0 0
rfemur -51.042 0.0322317 6.95271
rtibia 55.2808 0 0
rfoot 4.84849 -1.84909 0
rtoes -5.51778 0 0
lowerback 11.272 -0.362318 -3.1068
upperback 3.63092 -0.959303 -0.906447
thorax -2.26189 -0.467695 1.14313
lowerneck -6.29072 -3.118 2.51064
upperneck 7.19952 -4.67553 2.9249
head 3.47387 -2.11792 0.287001
lclavicle 1.79701e-14 -1.67774e-14 0
lhumerus -38.6407 -19.5159 81.8872
lradius 54.9299 0 0
lwrist 22.2212 0 0
lhand 5.44016 4.49072 0
lfingers 7.12502 0 0
lthumb 30.782 31.8579 0
rclavicle 1.79701e-14 -1.67774e-14 0
rhumerus -47.2828 5.96121 -60.2222
rradius 53.8095 0 0
rwrist 0.577319 0 0
rhand -12.4643 -28.6677 0
rfingers 7.12502 0 0
rthumb 13.6087 -778.19 0
854
root 3.8134 16.5837 28.6529 -13.1606 15.6055 358.27
lfemur -14.9511 5.30263 -16.9786
ltibia 32.5312 0 0
lfoot -4.90429 -22.5016 0
ltoes 23.0431 0 0
rfemur -52.6294 -0.146464 6.53802
rtibia 56.2917 0 0
rfoot 5.56385 -1.55346 0
rtoes -4.92344 0 0
lowerback 11.5859 -0.564965 -3.35491
upperback 3.74096 -1.24247 -0.932864
thorax -2.34133 -0.609158 1.25868
lowerneck -6.31432 -3.16534 2.48537
upperneck 7.3822 -4.74615 2.96919
head 3.54041 -2.14818 0.300882
lclavicle 1.84412e-14 -1.72267e-14 0
lhumerus -38.2307 -19.8914 81.6599
lradius 55.0145 0 0
lwrist 22.3363 0 0
lhand 5.76279 4.46208 0
lfingers 7.12502 0 0
lthumb 31.0908 31.7833 0
rclavicle 1.84412e-14 -1.72267e-14 0
rhumerus -47.7754 4.88988 -58.9205
rradius 53.4515 0 0
rwrist 0.668032 0 0
rhand -12.6281 -28.8493 0
rfingers 7.12502 0 0
rthumb 13.4509 -778.384 0
855
root 3.85291 16.5848 28.7764 -13.5887 16.1173 358.415
lfemur -14.4598 5.44344 -17.4854
ltibia 32.9092 0 0
lfoot -4.84115 -23.4315 0
ltoes 23.1123 0 0
rfemur -54.0731 -0.308983 6.16087
rtibia 57.211 0 0
rfoot 6.21445 -1.2846 0
rtoes -4.38289 0 0
lowerback 11.8714 -0.749268 -3.58055
upperback 3.84104 -1.49999 -0.95689
thorax -2.41358 -0.737815 1.36376
lowerneck -6.33578 -3.20839 2.46239
upperneck 7.54834 -4.81037 3.00947
head 3.60094 -2.1757 0.313507
lclavicle 1.88696e-14 -1.76353e-14 0
lhumerus -37.8579 -20.2329 81.4531
lradius 55.0913 0 0
lwrist 22.4409 0 0
lhand 6.05622 4.43604 0
lfingers 7.12502 0 0
lthumb 31.3717 31.7156 0
rclavicle 1.88696e-14 -1.76353e-14 0
rhumerus -48.2235 3.91552 -57.7367
rradius 53.1258 0 0
rwrist 0.750534 0 0
rhand -12.7771 -29.0144 0
rfingers 7.12502 0 0
rthumb 13.3075 -778.561 0
856
root 3.88817 16.5857 28.8866 -13.9708 16.5742 358.544
lfemur -14.0213 5.56912 -17.9377
ltibia 33.2466 0 0
lfoot -4.7848 -24.2615 0
ltoes 23.1739 0 0
rfemur -55.3616 -0.454031 5.82427
rtibia 58.0316 0 0
rfoot 6.79512 -1.04463 0
rtoes -3.90046 0 0
lowerback 12.1261 -0.913758 -3.78194
upperback 3.93036 -1.72984 -0.978333
thorax -2.47806 -0.852641 1.45755
lowerneck -6.35493 -3.24682 2.44188
upperneck 7.69662 -4.86769 3.04542
head 3.65495 -2.20026 0.324775
lclavicle 1.92519e-14 -1.79999e-14 0
lhumerus -37.5251 -20.5377 81.2685
lradius 55.16 0 0
lwrist 22.5343 0 0
lhand 6.3181 4.4128 0
lfingers 7.12502 0 0
lthumb 31.6224 31.6551 0
rclavicle 1.92519e-14 -1.79999e-14 0
rhumerus -48.6234 3.0459 -56.6802
rradius 52.8352 0 0
rwrist 0.824167 0 0
rhand -12.9101 -29.1618 0
rfingers 7.12502 0 0
rthumb 13.1794 -778.718 0
857
root 3.91888 16.5865 28.9825 -14.3034 16.9719 358.657
lfemur -13.6396 5.67854 -18.3315
ltibia 33.5403 0 0
lfoot -4.73574 -24.9841 0
ltoes 23.2276 0 0
rfemur -56.4834 -0.580315 5.53121
rtibia 58.746 0 0
rfoot 7.30066 -0.835714 0
rtoes -3.48043 0 0
lowerback 12.348 -1.05697 -3.95728
upperback 4.00813 -1.92995 -0.997002
thorax -2.5342 -0.952612 1.5392
lowerneck -6.37161 -3.28027 2.42403
upperneck 7.82572 -4.9176 3.07672
head 3.70198 -2.22164 0.334585
lclavicle 1.95848e-14 -1.83174e-14 0
lhumerus -37.2354 -20.8031 81.1078
lradius 55.2197 0 0
lwrist 22.6156 0 0
lhand 6.54611 4.39257 0
lfingers 7.12502 0 0
lthumb 31.8407 31.6024 0
rclavicle 1.95848e-14 -1.83174e-14 0
rhumerus -48.9716 2.28879 -55.7603
rradius 52.5822 0 0
rwrist 0.888274 0 0
rhand -13.0259 -29.2901 0
rfingers 7.12502 0 0
rthumb 13.0679 -778.856 0
858
root 3.9447 16.5872 29.0632 -14.5832 17.3064 358.752
lfemur -13.3185 5.77058 -18.6627
ltibia 33.7874 0 0
lfoot -4.69447 -25.5919 0
ltoes 23.2728 0 0
rfemur -57.4271 -0.68654 5.2847
rtibia 59.3469 0 0
rfoot 7.72591 -0.659979 0
rtoes -3.12713 0 0
lowerback 12.5345 -1.17743 -4.10476
upperback 4.07354 -2.09828 -1.01271
thorax -2.58143 -1.0367 1.60789
lowerneck -6.38564 -3.30841 2.40901
upperneck 7.93432 -4.95957 3.10305
head 3.74154 -2.23963 0.342836
lclavicle 1.98648e-14 -1.85844e-14 0
lhumerus -36.9917 -21.0263 80.9727
lradius 55.2699 0 0
lwrist 22.684 0 0
lhand 6.73789 4.37555 0
lfingers 7.12502 0 0
lthumb 32.0243 31.5581 0
rclavicle 1.98648e-14 -1.85844e-14 0
rhumerus -49.2644 1.65193 -54.9865
rradius 52.3694 0 0
rwrist 0.942198 0 0
rhand -13.1233 -29.3981 0
rfingers 7.12502 0 0
rthumb 12.9742 -778.971 0
